<svg width="16" height="17" viewBox="0 0 16 17" fill="none" xmlns="http://www.w3.org/2000/svg">
<path d="M12.9778 7.87316L0.444446 2.43316L1.06667 0.406494L14.9333 6.48649C15.2296 6.62872 15.4815 6.8776 15.6889 7.23316C15.8963 7.58871 16 7.97983 16 8.40649V14.2732C16 14.8598 15.8261 15.3622 15.4782 15.7804C15.1304 16.1985 14.7117 16.4072 14.2222 16.4065H1.77778C1.28889 16.4065 0.870223 16.1974 0.521779 15.7793C0.173335 15.3612 -0.000591083 14.8591 1.50915e-06 14.2732V10.0065C1.50915e-06 9.41983 0.174224 8.91743 0.522668 8.49929C0.871113 8.08116 1.28948 7.87245 1.77778 7.87316H12.9778ZM14.2222 14.2732V10.0065H1.77778V14.2732H14.2222ZM6.22222 13.2065H13.3333V11.0732H6.22222V13.2065ZM3.55556 13.2065C3.80741 13.2065 4.01867 13.1041 4.18933 12.8993C4.36 12.6945 4.44504 12.4413 4.44445 12.1398C4.44445 11.8376 4.35911 11.5841 4.18845 11.3793C4.01778 11.1745 3.80682 11.0724 3.55556 11.0732C3.3037 11.0732 3.09245 11.1756 2.92178 11.3804C2.75111 11.5852 2.66608 11.8383 2.66667 12.1398C2.66667 12.442 2.752 12.6956 2.92267 12.9004C3.09333 13.1052 3.3043 13.2072 3.55556 13.2065Z" fill="black"/>
</svg>
