<svg width="16" height="17" viewBox="0 0 16 17" fill="none" xmlns="http://www.w3.org/2000/svg">
<path d="M2 10.6922C1.44444 10.6922 0.972222 10.47 0.583333 10.0255C0.194444 9.5811 0 9.04142 0 8.40649C0 7.77157 0.194444 7.23189 0.583333 6.78745C0.972222 6.343 1.44444 6.12078 2 6.12078V4.40649C2 3.93507 2.14687 3.53149 2.44062 3.19578C2.73438 2.86007 3.0875 2.69221 3.5 2.69221H6C6 2.05729 6.19444 1.51761 6.58333 1.07316C6.97222 0.628716 7.44444 0.406494 8 0.406494C8.55556 0.406494 9.02778 0.628716 9.41667 1.07316C9.80556 1.51761 10 2.05729 10 2.69221H12.5C12.9125 2.69221 13.2656 2.86007 13.5594 3.19578C13.8531 3.53149 14 3.93507 14 4.40649V6.12078C14.5556 6.12078 15.0278 6.343 15.4167 6.78745C15.8056 7.23189 16 7.77157 16 8.40649C16 9.04142 15.8056 9.5811 15.4167 10.0255C15.0278 10.47 14.5556 10.6922 14 10.6922V14.6922C14 15.1636 13.853 15.5672 13.5591 15.9029C13.2652 16.2386 12.9119 16.4065 12.4992 16.4065H3.4941C3.08137 16.4065 2.72917 16.2386 2.4375 15.9029C2.14583 15.5672 2 15.1636 2 14.6922V10.6922ZM5.5 8.97792C5.77778 8.97792 6.01389 8.86681 6.20833 8.64459C6.40278 8.42237 6.5 8.15253 6.5 7.83507C6.5 7.51761 6.40278 7.24776 6.20833 7.02554C6.01389 6.80332 5.77778 6.69221 5.5 6.69221C5.22222 6.69221 4.98611 6.80332 4.79167 7.02554C4.59722 7.24776 4.5 7.51761 4.5 7.83507C4.5 8.15253 4.59722 8.42237 4.79167 8.64459C4.98611 8.86681 5.22222 8.97792 5.5 8.97792ZM10.25 8.97792C10.5278 8.97792 10.7639 8.86681 10.9583 8.64459C11.1528 8.42237 11.25 8.15253 11.25 7.83507C11.25 7.51761 11.1528 7.24776 10.9583 7.02554C10.7639 6.80332 10.5278 6.69221 10.25 6.69221C9.97222 6.69221 9.73611 6.80332 9.54167 7.02554C9.34722 7.24776 9.25 7.51761 9.25 7.83507C9.25 8.15253 9.34722 8.42237 9.54167 8.64459C9.73611 8.86681 9.97222 8.97792 10.25 8.97792ZM5.74917 12.4065H10.2441C10.4564 12.4065 10.6354 12.3248 10.7812 12.1615C10.9271 11.9982 11 11.7958 11 11.5544C11 11.3129 10.9282 11.1089 10.7846 10.9422C10.641 10.7755 10.4631 10.6922 10.2508 10.6922H5.7559C5.54363 10.6922 5.36458 10.7739 5.21875 10.9372C5.07292 11.1005 5 11.3029 5 11.5443C5 11.7858 5.07179 11.9898 5.21538 12.1565C5.35897 12.3232 5.5369 12.4065 5.74917 12.4065ZM3.5 14.6922H12.5V4.40649H3.5V14.6922Z" fill="black"/>
</svg>
