<svg width="16" height="17" viewBox="0 0 16 17" fill="none" xmlns="http://www.w3.org/2000/svg">
<path d="M8.00502 16.4065C7.76358 16.4065 7.55952 16.3244 7.39286 16.1601C7.22619 15.9958 7.14286 15.7922 7.14286 15.5494V9.33507H6.92857C6.02433 9.33507 5.15541 9.16443 4.32181 8.82316C3.48822 8.48189 2.74603 7.9938 2.09524 7.35888C1.41935 6.70438 0.901175 5.94807 0.540714 5.08995C0.180238 4.23182 0 3.33734 0 2.40649V1.26364C0 1.02078 0.082143 0.817208 0.246429 0.652922C0.410714 0.488636 0.614286 0.406494 0.857143 0.406494H2C2.90476 0.406494 3.76984 0.577129 4.59524 0.918399C5.42064 1.25967 6.15873 1.74776 6.80952 2.38268C7.26984 2.82713 7.65476 3.32316 7.96429 3.87078C8.27381 4.4184 8.50794 4.9938 8.66667 5.59697C9.26984 4.7557 10.0476 4.10888 11 3.65649C11.9524 3.20411 12.9524 2.97792 14 2.97792H15.1429C15.3857 2.97792 15.5893 3.06007 15.7536 3.22435C15.9179 3.38864 16 3.59221 16 3.83507V4.97792C16 5.91007 15.8214 6.8058 15.4643 7.66514C15.1071 8.52446 14.5873 9.27951 13.9048 9.9303C13.2698 10.4859 12.565 10.9144 11.7904 11.216C11.0157 11.5176 10.2046 11.6684 9.35714 11.6684H8.85714V15.5494C8.85714 15.7922 8.77548 15.9958 8.61217 16.1601C8.44883 16.3244 8.24645 16.4065 8.00502 16.4065ZM7.14286 7.54935C7.14286 6.81919 7.01984 6.10888 6.77381 5.4184C6.52778 4.72792 6.15079 4.12872 5.64286 3.62078C5.13492 3.11284 4.53571 2.73586 3.84524 2.48983C3.15476 2.2438 2.44444 2.12078 1.71429 2.12078C1.71429 2.85094 1.8373 3.56126 2.08333 4.25173C2.32937 4.94221 2.70635 5.54141 3.21429 6.04935C3.72222 6.55729 4.32143 6.93427 5.0119 7.1803C5.70238 7.42634 6.4127 7.54935 7.14286 7.54935ZM8.85714 10.1208C9.5873 10.1208 10.2976 9.99776 10.9881 9.75173C11.6786 9.5057 12.2778 9.12872 12.7857 8.62078C13.2937 8.11284 13.6706 7.51364 13.9167 6.82316C14.1627 6.13268 14.2857 5.42237 14.2857 4.69221C13.5556 4.69221 12.8452 4.81522 12.1548 5.06126C11.4643 5.30729 10.8651 5.68427 10.3571 6.19221C9.84921 6.70015 9.47222 7.29935 9.22619 7.98983C8.98016 8.6803 8.85714 9.39062 8.85714 10.1208Z" fill="#22231F"/>
</svg>
