<svg width="16" height="17" viewBox="0 0 16 17" fill="none" xmlns="http://www.w3.org/2000/svg">
<path d="M7.99999 1.73987C6.25333 1.73987 4.83333 3.15987 4.83333 4.90653C4.83333 6.61987 6.17333 8.00653 7.92 8.06653C7.97333 8.05987 8.02666 8.05987 8.06666 8.06653C8.08 8.06653 8.08666 8.06653 8.09999 8.06653C8.10666 8.06653 8.10666 8.06653 8.11333 8.06653C9.81999 8.00653 11.16 6.61987 11.1667 4.90653C11.1667 3.15987 9.74666 1.73987 7.99999 1.73987Z" fill="#292D32"/>
<path d="M11.3867 9.83979C9.52667 8.59979 6.49334 8.59979 4.62 9.83979C3.77334 10.4065 3.30667 11.1731 3.30667 11.9931C3.30667 12.8131 3.77334 13.5731 4.61334 14.1331C5.54667 14.7598 6.77334 15.0731 8 15.0731C9.22667 15.0731 10.4533 14.7598 11.3867 14.1331C12.2267 13.5665 12.6933 12.8065 12.6933 11.9798C12.6867 11.1598 12.2267 10.3998 11.3867 9.83979Z" fill="#292D32"/>
</svg>
