<svg width="16" height="17" viewBox="0 0 16 17" fill="none" xmlns="http://www.w3.org/2000/svg">
<path d="M7.24106 16.4065C7.03869 16.4065 6.86458 16.3336 6.71875 16.1877C6.57292 16.0419 6.5 15.8648 6.5 15.6565C6.5 15.4482 6.57292 15.2711 6.71875 15.1252C6.86458 14.9794 7.04167 14.9065 7.25 14.9065V13.844C6.76389 13.7746 6.30556 13.6496 5.875 13.469C5.44444 13.2884 5.04861 13.0593 4.6875 12.7815L3.9375 13.5315C4.09028 13.683 4.16667 13.8598 4.16667 14.0618C4.16667 14.2638 4.09077 14.4412 3.93898 14.594C3.7872 14.7468 3.61012 14.8232 3.40773 14.8232C3.20535 14.8232 3.02938 14.7471 2.87979 14.595L1.80771 13.5305C1.65813 13.3784 1.58333 13.2002 1.58333 12.996C1.58333 12.7917 1.65972 12.616 1.8125 12.469C1.96528 12.3162 2.14236 12.2398 2.34375 12.2398C2.54514 12.2398 2.72222 12.3162 2.875 12.469L3.625 11.719C3.34722 11.344 3.11806 10.9447 2.9375 10.5211C2.75694 10.0975 2.63194 9.64261 2.5625 9.15649H1.5C1.5 9.36483 1.42708 9.54191 1.28125 9.68774C1.13542 9.83358 0.958333 9.90649 0.75 9.90649C0.541667 9.90649 0.364583 9.83358 0.21875 9.68774C0.0729167 9.54191 0 9.36781 0 9.16543V7.64756C0 7.44518 0.0729167 7.27108 0.21875 7.12524C0.364583 6.97941 0.541667 6.90649 0.75 6.90649C0.958333 6.90649 1.13542 6.97941 1.28125 7.12524C1.42708 7.27108 1.5 7.44816 1.5 7.65649H2.5625C2.63194 7.17038 2.75694 6.71552 2.9375 6.29191C3.11806 5.8683 3.34722 5.46899 3.625 5.09399L2.875 4.34399C2.72222 4.49677 2.54514 4.57316 2.34375 4.57316C2.14236 4.57316 1.96528 4.49677 1.8125 4.34399C1.65972 4.19122 1.58333 4.0127 1.58333 3.80845C1.58333 3.6042 1.65972 3.42855 1.8125 3.28149L2.87623 2.21776C3.02819 2.06581 3.20629 1.98983 3.41054 1.98983C3.61479 1.98983 3.79044 2.06622 3.9375 2.21899C4.09028 2.36605 4.16667 2.5417 4.16667 2.74595C4.16667 2.9502 4.09028 3.12872 3.9375 3.28149L4.6875 4.03149C5.0625 3.75372 5.46181 3.52455 5.88542 3.34399C6.30903 3.16344 6.76389 3.03844 7.25 2.96899V1.90649C7.04167 1.90649 6.86458 1.83358 6.71875 1.68774C6.57292 1.54191 6.5 1.36483 6.5 1.15649C6.5 0.948161 6.57292 0.771077 6.71875 0.625244C6.86458 0.479411 7.03869 0.406494 7.24106 0.406494H8.75894C8.96131 0.406494 9.13542 0.479411 9.28125 0.625244C9.42708 0.771077 9.5 0.948161 9.5 1.15649C9.5 1.36483 9.42708 1.54191 9.28125 1.68774C9.13542 1.83358 8.95833 1.90649 8.75 1.90649V2.96899C9.23611 3.03844 9.69444 3.16344 10.125 3.34399C10.5556 3.52455 10.9514 3.75372 11.3125 4.03149L12.0625 3.28149C11.9097 3.12998 11.8333 2.95321 11.8333 2.75118C11.8333 2.54917 11.9097 2.37177 12.0625 2.21899C12.2153 2.06622 12.3938 1.98983 12.598 1.98983C12.8023 1.98983 12.9779 2.06622 13.125 2.21899L14.1887 3.29164C14.3407 3.44131 14.4167 3.61593 14.4167 3.81549C14.4167 4.01505 14.3403 4.19122 14.1875 4.34399C14.0347 4.49677 13.8562 4.57316 13.652 4.57316C13.4477 4.57316 13.2721 4.49677 13.125 4.34399L12.375 5.09399C12.6528 5.46899 12.8819 5.8683 13.0625 6.29191C13.2431 6.71552 13.3681 7.17038 13.4375 7.65649H14.5C14.5 7.44816 14.5729 7.27108 14.7188 7.12524C14.8646 6.97941 15.0417 6.90649 15.25 6.90649C15.4583 6.90649 15.6354 6.97941 15.7812 7.12524C15.9271 7.27108 16 7.44518 16 7.64756V9.16543C16 9.36781 15.9271 9.54191 15.7812 9.68774C15.6354 9.83358 15.4583 9.90649 15.25 9.90649C15.0417 9.90649 14.8646 9.83358 14.7188 9.68774C14.5729 9.54191 14.5 9.36483 14.5 9.15649H13.4375C13.3681 9.64261 13.2431 10.1009 13.0625 10.5315C12.8819 10.9621 12.6528 11.3579 12.375 11.719L13.125 12.469C13.2721 12.3162 13.4477 12.2398 13.652 12.2398C13.8562 12.2398 14.0347 12.3162 14.1875 12.469C14.3403 12.6218 14.4167 12.8003 14.4167 13.0045C14.4167 13.2088 14.3403 13.3844 14.1875 13.5315L13.1238 14.5952C12.9718 14.7472 12.7937 14.8232 12.5895 14.8232C12.3852 14.8232 12.2096 14.7468 12.0625 14.594C11.9097 14.4412 11.8333 14.2641 11.8333 14.0627C11.8333 13.8614 11.9097 13.6843 12.0625 13.5315L11.3125 12.7815C10.9375 13.0593 10.5382 13.2884 10.1146 13.469C9.69097 13.6496 9.23611 13.7746 8.75 13.844V14.9065C8.95833 14.9065 9.13542 14.9794 9.28125 15.1252C9.42708 15.2711 9.5 15.4482 9.5 15.6565C9.5 15.8648 9.42708 16.0419 9.28125 16.1877C9.13542 16.3336 8.96131 16.4065 8.75894 16.4065H7.24106ZM8.00471 12.4065C9.11268 12.4065 10.0556 12.016 10.8333 11.2351C11.6111 10.4542 12 9.50976 12 8.40179C12 7.29381 11.6095 6.35094 10.8286 5.57316C10.0477 4.79538 9.10326 4.40649 7.99529 4.40649C6.88732 4.40649 5.94444 4.79695 5.16667 5.57787C4.38889 6.35879 4 7.30323 4 8.4112C4 9.51918 4.39046 10.4621 5.17138 11.2398C5.95229 12.0176 6.89674 12.4065 8.00471 12.4065ZM6.7456 11.4065C6.95687 11.4065 7.13542 11.335 7.28125 11.1921C7.42708 11.0492 7.5 10.8721 7.5 10.6609C7.5 10.4496 7.42855 10.2711 7.28565 10.1252C7.14273 9.97941 6.96565 9.90649 6.7544 9.90649C6.54313 9.90649 6.36458 9.97795 6.21875 10.1208C6.07292 10.2638 6 10.4408 6 10.6521C6 10.8634 6.07145 11.0419 6.21435 11.1877C6.35727 11.3336 6.53435 11.4065 6.7456 11.4065ZM9.2456 11.4065C9.45687 11.4065 9.63542 11.335 9.78125 11.1921C9.92708 11.0492 10 10.8721 10 10.6609C10 10.4496 9.92855 10.2711 9.78565 10.1252C9.64273 9.97941 9.46565 9.90649 9.2544 9.90649C9.04313 9.90649 8.86458 9.97795 8.71875 10.1208C8.57292 10.2638 8.5 10.4408 8.5 10.6521C8.5 10.8634 8.57145 11.0419 8.71435 11.1877C8.85727 11.3336 9.03435 11.4065 9.2456 11.4065ZM5.2456 9.15649C5.45687 9.15649 5.63542 9.08504 5.78125 8.94214C5.92708 8.79922 6 8.62214 6 8.41089C6 8.19963 5.92855 8.02108 5.78565 7.87524C5.64273 7.72941 5.46565 7.65649 5.2544 7.65649C5.04313 7.65649 4.86458 7.72795 4.71875 7.87085C4.57292 8.01377 4.5 8.19085 4.5 8.4021C4.5 8.61336 4.57145 8.79191 4.71435 8.93774C4.85727 9.08358 5.03435 9.15649 5.2456 9.15649ZM7.9956 9.15649C8.20687 9.15649 8.38542 9.08504 8.53125 8.94214C8.67708 8.79922 8.75 8.62214 8.75 8.41089C8.75 8.19963 8.67855 8.02108 8.53565 7.87524C8.39273 7.72941 8.21565 7.65649 8.0044 7.65649C7.79313 7.65649 7.61458 7.72795 7.46875 7.87085C7.32292 8.01377 7.25 8.19085 7.25 8.4021C7.25 8.61336 7.32145 8.79191 7.46435 8.93774C7.60727 9.08358 7.78435 9.15649 7.9956 9.15649ZM10.7456 9.15649C10.9569 9.15649 11.1354 9.08504 11.2812 8.94214C11.4271 8.79922 11.5 8.62214 11.5 8.41089C11.5 8.19963 11.4285 8.02108 11.2856 7.87524C11.1427 7.72941 10.9656 7.65649 10.7544 7.65649C10.5431 7.65649 10.3646 7.72795 10.2188 7.87085C10.0729 8.01377 10 8.19085 10 8.4021C10 8.61336 10.0715 8.79191 10.2144 8.93774C10.3573 9.08358 10.5344 9.15649 10.7456 9.15649ZM6.7456 6.90649C6.95687 6.90649 7.13542 6.83504 7.28125 6.69214C7.42708 6.54922 7.5 6.37214 7.5 6.16089C7.5 5.94963 7.42855 5.77108 7.28565 5.62524C7.14273 5.47941 6.96565 5.40649 6.7544 5.40649C6.54313 5.40649 6.36458 5.47795 6.21875 5.62085C6.07292 5.76377 6 5.94085 6 6.1521C6 6.36336 6.07145 6.54191 6.21435 6.68774C6.35727 6.83358 6.53435 6.90649 6.7456 6.90649ZM9.2456 6.90649C9.45687 6.90649 9.63542 6.83504 9.78125 6.69214C9.92708 6.54922 10 6.37214 10 6.16089C10 5.94963 9.92855 5.77108 9.78565 5.62524C9.64273 5.47941 9.46565 5.40649 9.2544 5.40649C9.04313 5.40649 8.86458 5.47795 8.71875 5.62085C8.57292 5.76377 8.5 5.94085 8.5 6.1521C8.5 6.36336 8.57145 6.54191 8.71435 6.68774C8.85727 6.83358 9.03435 6.90649 9.2456 6.90649Z" fill="#22231F"/>
</svg>
